HIERARCHY
ROOT hip
{
	OFFSET 0.000000 0.000000 0.000000 
	CHANNELS 6 Xposition Yposition Zposition Xrotation Zrotation Yrotation
	JOINT abdomen
	{
		OFFSET 0.000000 3.402643 0.000000 
		CHANNELS 3 Xrotation Zrotation Yrotation
		JOINT chest
		{
			OFFSET 0.000000 8.438565 -0.680529 
			CHANNELS 3 Xrotation Zrotation Yrotation
			JOINT neck
			{
				OFFSET 0.000000 10.207942 -0.272212 
				CHANNELS 3 Xrotation Zrotation Yrotation
				JOINT head
				{
					OFFSET 0.000000 3.130431 0.000000 
					CHANNELS 3 Xrotation Zrotation Yrotation
					End Site
					{
						OFFSET 0.000000 3.130435 0.000000 
					}
				}
			}
			JOINT lCollar
			{
				OFFSET 3.470700 6.669187 -0.816635 
				CHANNELS 3 Yrotation Zrotation Xrotation
				JOINT lShldr
				{
					OFFSET 3.198488 0.000000 0.000000 
					CHANNELS 3 Zrotation Yrotation Xrotation
					JOINT lForeArm
					{
						OFFSET 10.139888 0.000000 0.000000 
						CHANNELS 3 Yrotation Zrotation Xrotation
						JOINT lHand
						{
							OFFSET 8.370511 0.000000 0.000000 
							CHANNELS 3 Zrotation Yrotation Xrotation
							End Site
							{
								OFFSET 4.083176 0.000000 0.000000 
							}
						}
					}
				}
			}
			JOINT rCollar
			{
				OFFSET -3.470700 6.669187 -0.816635 
				CHANNELS 3 Yrotation Zrotation Xrotation
				JOINT rShldr
				{
					OFFSET -3.198488 0.000000 0.000000 
					CHANNELS 3 Zrotation Yrotation Xrotation
					JOINT rForeArm
					{
						OFFSET -10.139888 0.000000 0.000000 
						CHANNELS 3 Yrotation Zrotation Xrotation
						JOINT rHand
						{
							OFFSET -8.370511 0.000000 0.000000 
							CHANNELS 3 Zrotation Yrotation Xrotation
							End Site
							{
								OFFSET -4.083176 0.000000 0.000000 
							}
						}
					}
				}
			}
		}
	}
	JOINT lThigh
	{
		OFFSET 5.308129 -1.633274 1.361059 
		CHANNELS 3 Xrotation Zrotation Yrotation
		JOINT lShin
		{
			OFFSET -2.041588 -20.007561 0.000000 
			CHANNELS 3 Xrotation Zrotation Yrotation
			JOINT lFoot
			{
				OFFSET 0.000000 -19.190928 -1.224953 
				CHANNELS 3 Xrotation Yrotation Zrotation
				End Site
				{
					OFFSET 0.000000 -2.449906 4.627600 
				}
			}
		}
	}
	JOINT rThigh
	{
		OFFSET -5.308129 -1.633274 1.361059 
		CHANNELS 3 Xrotation Zrotation Yrotation
		JOINT rShin
		{
			OFFSET 2.041588 -20.007561 0.000000 
			CHANNELS 3 Xrotation Zrotation Yrotation
			JOINT rFoot
			{
				OFFSET 0.000000 -19.190928 -1.224953 
				CHANNELS 3 Xrotation Yrotation Zrotation
				End Site
				{
					OFFSET 0.000000 -2.449906 4.627600 
				}
			}
		}
	}
}
MOTION
Frames: 11
Frame Time: 0.016667
0.634688 49.354294 139.278564 -7.427786 -0.215754 -16.142719 19.096432 -5.126932 0.166224 -20.242899 0.556253 2.138856 9.643096 -4.938776 -14.802758 3.578419 11.273932 -17.196249 0.204897 -1.064488 -0.009764 -43.763371 30.005339 47.983994 -92.854233 -0.362473 -3.872564 -8.671669 -6.692373 1.007342 11.689660 1.248021 -0.009774 84.415268 -15.608935 -54.512112 67.857994 1.963364 -23.660749 6.324123 -3.920309 -0.444205 5.253853 -1.972754 -32.624084 11.276122 -1.763719 -1.351822 -13.324650 12.587605 -8.989617 -9.109384 -11.961974 29.984762 36.805748 0.785068 2.902027 -4.578674 -17.301277 10.405426 
0.689139 49.313663 139.282196 -7.601864 -0.018724 -16.533205 18.834335 -5.195209 0.362497 -20.194912 0.009757 2.353517 10.282970 -4.874432 -14.722433 3.795013 11.207468 -17.052881 0.107210 -1.240253 -0.009763 -43.145180 29.958412 47.794498 -93.234756 -0.314552 -3.385053 -9.135352 -6.770855 1.075790 11.533423 1.316407 -0.009790 85.078903 -16.338455 -53.065956 68.373177 1.944963 -23.395670 7.575875 -4.682932 -0.641931 5.319411 -2.354006 -32.183178 11.483441 -1.763972 -1.362901 -13.508884 12.478963 -8.975523 -9.407754 -11.940233 30.623846 37.450565 0.745895 2.921269 -4.621122 -17.580055 10.363612 
0.743629 49.272938 139.285782 -7.768857 0.177511 -16.923895 18.572664 -5.263431 0.549048 -20.161226 -0.546326 2.568429 10.915739 -4.819481 -14.642954 4.011247 11.140826 -16.909531 0.019290 -1.416019 -0.009763 -42.530254 29.911396 47.614277 -93.613701 -0.279696 -2.896718 -9.609038 -6.848480 1.145575 11.376953 1.376953 0.000000 85.720276 -17.086851 -51.619030 68.884529 1.929163 -23.125095 8.849581 -5.431502 -0.854906 5.374224 -2.725126 -31.760601 11.711521 -1.756647 -1.374728 -13.714858 12.390226 -8.960958 -9.722924 -11.912550 31.261919 38.085052 0.716567 2.952535 -4.644777 -17.852373 10.318874 
0.805874 49.214661 139.277817 -7.879362 0.400744 -17.383194 18.257479 -5.243639 0.793952 -20.102892 -1.111968 2.783626 11.517369 -4.944065 -14.567634 4.210275 11.026695 -16.772024 0.195033 -1.640658 -0.009762 -41.797714 29.434759 47.638790 -93.960625 -0.264771 -2.792011 -9.671814 -7.089615 1.184875 11.298828 1.318359 -0.000225 86.217484 -17.420553 -50.259102 69.133331 1.798164 -21.645132 10.957182 -5.797561 -1.141133 5.228381 -3.174078 -31.215420 12.164246 -1.753879 -1.437647 -13.988390 12.295881 -8.932685 -10.218364 -11.813906 32.049007 38.904705 0.677373 2.998996 -4.596326 -18.181711 10.300542 
0.868137 49.156326 139.269775 -7.993553 0.622794 -17.852592 17.943352 -5.223771 1.029134 -20.049101 -1.677373 3.009095 12.121123 -5.078179 -14.492401 4.404004 10.921142 -16.647881 0.370776 -1.865298 -0.009760 -41.073231 28.968489 47.659882 -94.301987 -0.250782 -2.682675 -9.745828 -7.328816 1.234284 11.211146 1.248101 -0.009790 86.699532 -17.770615 -48.901485 69.385193 1.685657 -20.170002 13.065969 -6.153870 -1.435168 5.080077 -3.613063 -30.688002 12.636577 -1.761769 -1.453850 -14.284613 12.148990 -8.909530 -10.716372 -11.706885 32.824459 39.724640 0.638156 3.035319 -4.540257 -18.512100 10.283277 
0.934876 49.087212 139.250092 -8.033405 0.843578 -18.332045 17.599197 -5.125653 1.293504 -20.139553 -2.310813 3.215394 12.610422 -5.269585 -14.398715 5.026036 10.820812 -16.422491 0.585619 -1.865335 -0.009760 -40.500092 28.433084 47.849548 -94.511391 -0.234435 -2.477343 -9.705810 -7.684383 1.299198 11.172082 1.238342 -0.009789 86.887657 -17.453339 -47.866444 69.410217 1.573605 -18.760210 15.114673 -7.160320 -1.958601 4.768801 -4.071574 -30.132315 13.307057 -1.752607 -1.498862 -14.673893 12.025311 -8.855420 -11.336214 -11.523036 33.635166 40.632080 0.589381 3.081807 -4.399029 -18.873766 10.283941 
1.001633 49.018097 139.230377 -8.076964 1.063070 -18.811937 17.256807 -5.027469 1.548156 -20.224730 -2.934190 3.432233 13.088397 -5.461375 -14.295471 5.632835 10.728922 -16.208555 0.800463 -1.865371 -0.009760 -39.923649 27.889481 48.039318 -94.715698 -0.219026 -2.269802 -9.665095 -8.051318 1.355654 11.123255 1.238350 -0.009791 87.073814 -17.158875 -46.839729 69.431923 1.445067 -17.354744 17.182129 -8.147309 -2.520002 4.459684 -4.530663 -29.574783 13.978116 -1.732854 -1.542704 -15.051715 11.890670 -8.797067 -11.956221 -11.336393 34.444675 41.539436 0.540402 3.127584 -4.247572 -19.231361 10.280615 
1.071589 48.949726 139.202271 -8.044780 1.281682 -19.233343 17.016384 -4.900005 1.773628 -20.763884 -3.576812 3.629992 13.941404 -5.606708 -14.161328 6.076799 10.844771 -15.974990 0.878608 -1.748197 -0.009760 -39.153130 27.736889 48.553856 -94.990013 -0.227431 -2.400152 -10.303342 -8.314679 1.495985 11.172091 1.296936 -0.009799 87.235535 -16.970789 -45.966591 69.883163 1.224759 -14.803780 18.774475 -8.933853 -3.042865 4.055523 -4.959068 -29.069603 14.637444 -1.723420 -1.586635 -15.381774 11.783899 -8.761915 -12.623401 -11.132190 35.180984 42.407661 0.491402 3.170846 -4.077277 -19.570740 10.317874 
1.141551 48.881432 139.174149 -8.025596 1.499090 -19.655231 16.767675 -4.782286 1.988544 -21.306839 -4.209368 3.828115 14.780610 -5.742949 -14.017549 6.521670 10.960680 -15.743320 0.956753 -1.631022 -0.009760 -38.375813 27.586828 49.075905 -95.273254 -0.244547 -2.535480 -10.952535 -8.575642 1.642303 11.211164 1.355523 -0.009808 87.405174 -16.788816 -45.108265 70.349525 1.016747 -12.251686 20.383595 -9.694436 -3.591751 3.670171 -5.390024 -28.573759 15.307886 -1.703646 -1.610650 -15.764451 11.647525 -8.728968 -13.279496 -10.917755 35.913845 43.286221 0.452208 3.198264 -3.903010 -19.881514 10.349167 
1.213629 48.825832 139.139984 -7.941394 1.725610 -19.970320 16.620642 -4.645103 2.175080 -22.133833 -4.802675 4.017625 15.836292 -5.793017 -13.910708 6.618700 10.988852 -15.565420 0.966529 -1.572430 -0.009761 -37.425964 27.653133 49.727829 -95.742714 -0.283375 -2.916514 -11.406301 -8.217592 1.641903 11.347914 1.541047 -0.009834 87.499321 -17.094538 -44.441784 71.625954 0.690488 -8.840565 22.179197 -10.202157 -4.152112 3.254771 -5.748981 -28.154840 15.788962 -1.696589 -1.654962 -15.995900 11.552445 -8.697934 -13.907558 -10.761053 36.511395 44.007881 0.413100 3.237202 -3.757244 -20.165291 10.367048 
1.285701 48.770348 139.105774 -7.872852 1.960325 -20.285772 16.473728 -4.507873 2.370550 -22.965691 -5.395589 4.217310 16.895136 -5.852348 -13.814583 6.717779 11.017464 -15.377949 0.966539 -1.513837 -0.009761 -36.480709 27.713228 50.388912 -96.218781 -0.318661 -3.301354 -11.848527 -7.862408 1.623731 11.474896 1.716807 -0.009859 87.597755 -17.383780 -43.792736 72.916512 0.444177 -5.423975 23.978834 -10.692159 -4.728938 2.852045 -6.123066 -27.746330 16.302364 -1.661355 -1.687912 -16.251318 11.449595 -8.677793 -14.531089 -10.595361 37.103756 44.720104 0.371261 3.264513 -3.625161 -20.465000 10.385977 
